<?xml version="1.0" encoding="UTF-8"?>
<svg xmlns="http://www.w3.org/2000/svg" width="2700" height="2964" viewBox="0 0 900 988" role="img" aria-label="导出图表预览" style="width:100%;height:auto;font-family:宋体"><rect width="900" height="988" fill="#ffffff"></rect><text x="450" y="38" text-anchor="middle" font-size="26" font-weight="600" fill="#000000">项目实施进度计划</text><svg x="0" y="64" width="900" height="924" viewBox="0 0 900 924"><svg xmlns="http://www.w3.org/2000/svg" viewBox="0 0 900 924" role="img" aria-label="项目实施进度计划" fill="#000000" style="font-family:宋体, &quot;PingFang SC&quot;, &quot;Microsoft YaHei&quot;, sans-serif;background:transparent;color:#000000;font-weight:400;width:100%;height:auto"><rect width="100%" height="100%" fill="transparent"></rect><defs><marker id="«R3»" viewBox="0 0 10 10" refX="10" refY="5" markerWidth="7" markerHeight="7" orient="auto-start-reverse"><path d="M 0 0 L 10 5 L 0 10 z" fill="#000000"></path></marker><marker id="«R3»-dependency" viewBox="0 0 8 8" refX="8" refY="4" markerWidth="7" markerHeight="7" markerUnits="userSpaceOnUse" orient="auto"><path d="M0 0 L8 4 L0 8 z" fill="#000000"></path></marker><pattern id="«R3H1»" patternUnits="userSpaceOnUse" width="8" height="8"><path d="M-2 2 L2 -2 M0 8 L8 0 M6 10 L10 6" stroke="#000000" stroke-width="1.2" fill="none"></path></pattern></defs><text x="35" y="43" font-size="18">任务名称</text><text x="230" y="43" font-size="16">工期</text><g><text x="310" y="43" text-anchor="middle" font-size="15">起点</text></g><g><text x="395" y="43" text-anchor="middle" font-size="15">5天</text></g><g><text x="480" y="43" text-anchor="middle" font-size="15">10天</text></g><g><text x="565" y="43" text-anchor="middle" font-size="15">15天</text></g><g><text x="650" y="43" text-anchor="middle" font-size="15">20天</text></g><g><text x="735" y="43" text-anchor="middle" font-size="15">25天</text></g><g><text x="820" y="43" text-anchor="middle" font-size="15">30天</text></g><line x1="30" x2="840" y1="80" y2="80" stroke="#dddddd"></line><line x1="30" x2="840" y1="164" y2="164" stroke="#dddddd"></line><line x1="30" x2="840" y1="248" y2="248" stroke="#dddddd"></line><line x1="30" x2="840" y1="332" y2="332" stroke="#dddddd"></line><line x1="30" x2="840" y1="416" y2="416" stroke="#dddddd"></line><line x1="30" x2="840" y1="500" y2="500" stroke="#dddddd"></line><line x1="30" x2="840" y1="584" y2="584" stroke="#dddddd"></line><line x1="30" x2="840" y1="668" y2="668" stroke="#dddddd"></line><line x1="30" x2="840" y1="752" y2="752" stroke="#dddddd"></line><g data-dependency-id="d0"><path d="M362.25 116 L373 116 L373 174 L349 174 L349 200 L358.75 200" fill="none" stroke="#000000" stroke-width="1.75" stroke-linejoin="round" stroke-linecap="round" marker-end="url(#«R3»-dependency)"></path></g><g data-dependency-id="d1"><path d="M362.25 116 L373 116 L373 174 L349 174 L349 284 L358.75 284" fill="none" stroke="#000000" stroke-width="1.75" stroke-linejoin="round" stroke-linecap="round" marker-end="url(#«R3»-dependency)"></path></g><g data-dependency-id="d2"><path d="M481.25 200 L492 200 L492 342 L468 342 L468 368 L477.75 368" fill="none" stroke="#000000" stroke-width="1.75" stroke-linejoin="round" stroke-linecap="round" marker-end="url(#«R3»-dependency)"></path></g><g data-dependency-id="d3"><path d="M447.25 284 L468 284 L468 368 L477.75 368" fill="none" stroke="#000000" stroke-width="1.75" stroke-linejoin="round" stroke-linecap="round"></path></g><g data-dependency-id="d4"><path d="M481.25 200 L492 200 L492 342 L468 342 L468 452 L477.75 452" fill="none" stroke="#000000" stroke-width="1.75" stroke-linejoin="round" stroke-linecap="round" marker-end="url(#«R3»-dependency)"></path></g><g data-dependency-id="d5"><path d="M617.25 368 L628 368 L628 510 L604 510 L604 536 L613.75 536" fill="none" stroke="#000000" stroke-width="1.75" stroke-linejoin="round" stroke-linecap="round" marker-end="url(#«R3»-dependency)"></path></g><g data-dependency-id="d6"><path d="M583.25 452 L604 452 L604 536 L613.75 536" fill="none" stroke="#000000" stroke-width="1.75" stroke-linejoin="round" stroke-linecap="round"></path></g><g data-dependency-id="d7"><path d="M685.25 536 L696 536 L696 594 L672 594 L672 620 L681.75 620" fill="none" stroke="#000000" stroke-width="1.75" stroke-linejoin="round" stroke-linecap="round" marker-end="url(#«R3»-dependency)"></path></g><g data-dependency-id="d8"><path d="M753.25 620 L764 620 L764 678 L740 678 L740 704 L749.75 704" fill="none" stroke="#000000" stroke-width="1.75" stroke-linejoin="round" stroke-linecap="round" marker-end="url(#«R3»-dependency)"></path></g><g data-dependency-id="d9"><path d="M821.25 704 L832 704 L832 767 L799 767 L799 788 L808.75 788" fill="none" stroke="#000000" stroke-width="1.75" stroke-linejoin="round" stroke-linecap="round" marker-end="url(#«R3»-dependency)"></path></g><g data-task-id="t0" data-start="0" data-end="3"><text x="35" y="127" font-size="16.799999999999997" aria-label="编辑任务：现场复核与施工准备" style="cursor:default"><tspan x="35" dy="0">现场复核与施工准备</tspan></text><text x="235" y="127" font-size="17">3 天</text><rect x="310" y="102" width="51" height="28" rx="0" fill="none" stroke="#000000" stroke-width="2.5" data-bar-style="outline"></rect></g><g data-task-id="t1" data-start="3" data-end="10"><text x="35" y="211" font-size="16.799999999999997" aria-label="编辑任务：设备材料采购与到货" style="cursor:default"><tspan x="35" dy="0">设备材料采购与到货</tspan></text><text x="235" y="211" font-size="17">7 天</text><rect x="361" y="186" width="119" height="28" rx="0" fill="none" stroke="#000000" stroke-width="2.5" data-bar-style="outline"></rect></g><g data-task-id="t2" data-start="3" data-end="8"><text x="35" y="295" font-size="16.799999999999997" aria-label="编辑任务：管线路由放线与支架安装" style="cursor:default"><tspan x="35" dy="0">管线路由放线与支架安装</tspan></text><text x="235" y="295" font-size="17">5 天</text><rect x="361" y="270" width="85" height="28" rx="0" fill="none" stroke="#000000" stroke-width="2.5" data-bar-style="outline"></rect></g><g data-task-id="t3" data-start="10" data-end="18"><text x="35" y="379" font-size="16.799999999999997" aria-label="编辑任务：消防管道安装" style="cursor:default"><tspan x="35" dy="0">消防管道安装</tspan></text><text x="235" y="379" font-size="17">8 天</text><rect x="480" y="354" width="136" height="28" rx="0" fill="none" stroke="#000000" stroke-width="2.5" data-bar-style="outline"></rect></g><g data-task-id="t4" data-start="10" data-end="16"><text x="35" y="463" font-size="16.799999999999997" aria-label="编辑任务：报警线路敷设" style="cursor:default"><tspan x="35" dy="0">报警线路敷设</tspan></text><text x="235" y="463" font-size="17">6 天</text><rect x="480" y="438" width="102" height="28" rx="0" fill="none" stroke="#000000" stroke-width="2.5" data-bar-style="outline"></rect></g><g data-task-id="t5" data-start="18" data-end="22"><text x="35" y="547" font-size="16.799999999999997" aria-label="编辑任务：终端设备安装" style="cursor:default"><tspan x="35" dy="0">终端设备安装</tspan></text><text x="235" y="547" font-size="17">4 天</text><rect x="616" y="522" width="68" height="28" rx="0" fill="none" stroke="#000000" stroke-width="2.5" data-bar-style="outline"></rect></g><g data-task-id="t6" data-start="22" data-end="26"><text x="35" y="631" font-size="16.799999999999997" aria-label="编辑任务：系统联合调试" style="cursor:default"><tspan x="35" dy="0">系统联合调试</tspan></text><text x="235" y="631" font-size="17">4 天</text><rect x="684" y="606" width="68" height="28" rx="0" fill="none" stroke="#000000" stroke-width="2.5" data-bar-style="outline"></rect></g><g data-task-id="t7" data-start="26" data-end="30"><text x="35" y="715" font-size="16.799999999999997" aria-label="编辑任务：验收资料整理与竣工验收" style="cursor:default"><tspan x="35" dy="0">验收资料整理与竣工验收</tspan></text><text x="235" y="715" font-size="17">4 天</text><rect x="752" y="690" width="68" height="28" rx="0" fill="none" stroke="#000000" stroke-width="2.5" data-bar-style="outline"></rect></g><g data-task-id="t8" data-start="30" data-end="30"><text x="35" y="799" font-size="16.799999999999997" aria-label="编辑任务：项目交付" style="cursor:default"><tspan x="35" dy="0">项目交付</tspan></text><text x="235" y="799" font-size="17">0 天</text><path d="M820 779 l9 9 -9 9 -9 -9 z" fill="#000000"></path></g><text x="310" y="869" font-size="16">起点为 0 · 日历天 · 完工：30 天</text></svg></svg></svg>