<?xml version="1.0" encoding="UTF-8"?>
<svg xmlns="http://www.w3.org/2000/svg" width="4961" height="3508" viewBox="0 0 4961 3508" role="img" aria-label="导出图表预览" style="width:100%;height:auto;font-family:sans-serif"><rect width="4961" height="3508" fill="none"></rect><svg x="177" y="177" width="4607" height="3009.9066666666668" viewBox="0 0 900 588"><svg xmlns="http://www.w3.org/2000/svg" viewBox="0 0 900 588" role="img" aria-label="项目实施进度计划" fill="#000000" style="font-family:sans-serif;background:transparent;color:#000000;width:100%;height:auto"><rect width="100%" height="100%" fill="transparent"></rect><defs><marker id="«R3»" viewBox="0 0 10 10" refX="8" refY="5" markerWidth="7" markerHeight="7" orient="auto-start-reverse"><path d="M 0 0 L 10 5 L 0 10 z" fill="#000000"></path></marker></defs><text x="35" y="43" font-size="18">任务名称</text><text x="230" y="43" font-size="16">工期</text><g><line x1="310" y1="65" x2="310" y2="500" stroke="#dddddd"></line><text x="310" y="43" text-anchor="middle" font-size="15">起点</text></g><g><line x1="395" y1="65" x2="395" y2="500" stroke="#dddddd"></line><text x="395" y="43" text-anchor="middle" font-size="15">1.17天</text></g><g><line x1="480" y1="65" x2="480" y2="500" stroke="#dddddd"></line><text x="480" y="43" text-anchor="middle" font-size="15">2.33天</text></g><g><line x1="565" y1="65" x2="565" y2="500" stroke="#dddddd"></line><text x="565" y="43" text-anchor="middle" font-size="15">3.5天</text></g><g><line x1="650" y1="65" x2="650" y2="500" stroke="#dddddd"></line><text x="650" y="43" text-anchor="middle" font-size="15">4.67天</text></g><g><line x1="735" y1="65" x2="735" y2="500" stroke="#dddddd"></line><text x="735" y="43" text-anchor="middle" font-size="15">5.83天</text></g><g><line x1="820" y1="65" x2="820" y2="500" stroke="#dddddd"></line><text x="820" y="43" text-anchor="middle" font-size="15">7天</text></g><g data-dependency-id="d1"><path d="M528.5714285714286 116 H540.5714285714286 V200 H455.71428571428567" fill="none" stroke="#000000" stroke-width="1.5" marker-end="url(#«R3»)"></path></g><g data-dependency-id="d2"><path d="M528.5714285714286 116 H540.5714285714286 V284 H601.4285714285713" fill="none" stroke="#000000" stroke-width="1.5" marker-end="url(#«R3»)"></path></g><g data-dependency-id="d3"><path d="M820 200 H832 V368 H820" fill="none" stroke="#000000" stroke-width="1.5" marker-end="url(#«R3»)"></path></g><g data-dependency-id="d4"><path d="M820 368 H832 V452 H820" fill="none" stroke="#000000" stroke-width="1.5" marker-end="url(#«R3»)"></path></g><g data-dependency-id="d5"><path d="M747.1428571428571 284 H759.1428571428571 V452 H820" fill="none" stroke="#000000" stroke-width="1.5" marker-end="url(#«R3»)"></path></g><g data-task-id="t1" data-start="0" data-end="3"><line x1="30" x2="840" y1="80" y2="80" stroke="#ddd"></line><text x="35" y="127" font-size="16.799999999999997" aria-label="编辑任务：准备" style="cursor:default"><tspan x="35" dy="0">准备</tspan></text><text x="235" y="127" font-size="17">3 天</text><rect x="310" y="102" width="218.57142857142856" height="28" rx="5" fill="#FFFFFF" stroke="#000000" stroke-width="1.5"></rect></g><g data-task-id="t2" data-start="2" data-end="7"><line x1="30" x2="840" y1="164" y2="164" stroke="#ddd"></line><text x="35" y="211" font-size="16.799999999999997" aria-label="编辑任务：实施与记录" style="cursor:default"><tspan x="35" dy="0">实施与记录</tspan></text><text x="235" y="211" font-size="17">5 天</text><rect x="455.71428571428567" y="186" width="364.28571428571433" height="28" rx="5" fill="#FFFFFF" stroke="#000000" stroke-width="1.5"></rect></g><g data-task-id="t3" data-start="4" data-end="6"><line x1="30" x2="840" y1="248" y2="248" stroke="#ddd"></line><text x="35" y="295" font-size="16.799999999999997" aria-label="编辑任务：培训" style="cursor:default"><tspan x="35" dy="0">培训</tspan></text><text x="235" y="295" font-size="17">2 天</text><rect x="601.4285714285713" y="270" width="145.71428571428578" height="28" rx="5" fill="#FFFFFF" stroke="#000000" stroke-width="1.5"></rect></g><g data-task-id="m1" data-start="7" data-end="7"><line x1="30" x2="840" y1="332" y2="332" stroke="#ddd"></line><text x="35" y="379" font-size="16.799999999999997" aria-label="编辑任务：阶段验收" style="cursor:default"><tspan x="35" dy="0">阶段验收</tspan></text><text x="235" y="379" font-size="17">0 天</text><path d="M820 359 l9 9 -9 9 -9 -9 z" fill="#000000"></path></g><g data-task-id="m2" data-start="7" data-end="7"><line x1="30" x2="840" y1="416" y2="416" stroke="#ddd"></line><text x="35" y="463" font-size="16.799999999999997" aria-label="编辑任务：交付" style="cursor:default"><tspan x="35" dy="0">交付</tspan></text><text x="235" y="463" font-size="17">0 天</text><path d="M820 443 l9 9 -9 9 -9 -9 z" fill="#000000"></path></g><text x="310" y="533" font-size="16">起点为 0 · 日历天 · 完工：7 天</text></svg></svg></svg>